HIERARCHY
ROOT reference
{
  OFFSET -65.3212 -1.93545 -120.338
  CHANNELS 6 Xposition Yposition Zposition Zrotation Xrotation Yrotation
  JOINT Hips
  {
    OFFSET 0 78.7191 0
    CHANNELS 3 Zrotation Xrotation Yrotation
    JOINT Chest
    {
      OFFSET 0 8.7983 -4.7612
      CHANNELS 3 Zrotation Xrotation Yrotation
      JOINT Chest2
      {
        OFFSET 0 8.0291 0.4195
        CHANNELS 3 Zrotation Xrotation Yrotation
        JOINT Chest3
        {
          OFFSET 0 9.9351 -2.2114
          CHANNELS 3 Zrotation Xrotation Yrotation
          JOINT Neck
          {
            OFFSET 0 22.3885 -0.4656
            CHANNELS 3 Zrotation Xrotation Yrotation
            JOINT Head
            {
              OFFSET -0.0001 12.643 3.4389
              CHANNELS 3 Zrotation Xrotation Yrotation
              End Site
              {
                OFFSET 0.0001 17.6655 0.5274
              }
            }
          }
          JOINT LeftCollar
          {
            OFFSET 2.2603 21.606 7.4023
            CHANNELS 3 Zrotation Xrotation Yrotation
            JOINT LeftShoulder
            {
              OFFSET 13.5163 -1.1332 -5.0146
              CHANNELS 3 Zrotation Xrotation Yrotation
              JOINT LeftElbow
              {
                OFFSET -0.0995 -28.05 -0.2431
                CHANNELS 3 Zrotation Xrotation Yrotation
                JOINT LeftWrist
                {
                  OFFSET 0.0679 -23.3996 -0.1402
                  CHANNELS 3 Zrotation Xrotation Yrotation
                  JOINT LeftFinger1
                  {
                    OFFSET 0.7932 -9.069 2.5189
                    CHANNELS 3 Zrotation Xrotation Yrotation
                    JOINT LeftFinger11
                    {
                      OFFSET -0.8272 -3.3923 0.5977
                      CHANNELS 3 Zrotation Xrotation Yrotation
                      JOINT LeftFinger12
                      {
                        OFFSET -0.5649 -2.3158 0.4082
                        CHANNELS 3 Zrotation Xrotation Yrotation
                        End Site
                        {
                          OFFSET -0.4919 -1.6479 0.2673
                        }
                      }
                    }
                  }
                  JOINT LeftFinger2
                  {
                    OFFSET 0.9159 -9.2044 0.2193
                    CHANNELS 3 Zrotation Xrotation Yrotation
                    JOINT LeftFinger21
                    {
                      OFFSET 0.0117 -4.1944 -0.0248
                      CHANNELS 3 Zrotation Xrotation Yrotation
                      JOINT LeftFinger22
                      {
                        OFFSET 0.0071 -2.3249 -0.0142
                        CHANNELS 3 Zrotation Xrotation Yrotation
                        End Site
                        {
                          OFFSET -0.1475 -2.0882 0.0028
                        }
                      }
                    }
                  }
                  JOINT LeftFinger3
                  {
                    OFFSET 0.6113 -8.7231 -2.0637
                    CHANNELS 3 Zrotation Xrotation Yrotation
                    JOINT LeftFinger31
                    {
                      OFFSET -0.1927 -3.8059 -0.2383
                      CHANNELS 3 Zrotation Xrotation Yrotation
                      JOINT LeftFinger32
                      {
                        OFFSET -0.1091 -2.1688 -0.1362
                        CHANNELS 3 Zrotation Xrotation Yrotation
                        End Site
                        {
                          OFFSET -0.2358 -1.9176 -0.0906
                        }
                      }
                    }
                  }
                  JOINT LeftFinger4
                  {
                    OFFSET -0.6151 -8.0947 -3.5641
                    CHANNELS 3 Zrotation Xrotation Yrotation
                    JOINT LeftFinger41
                    {
                      OFFSET -0.4882 -2.341 -0.6462
                      CHANNELS 3 Zrotation Xrotation Yrotation
                      JOINT LeftFinger42
                      {
                        OFFSET -0.3575 -1.7167 -0.4742
                        CHANNELS 3 Zrotation Xrotation Yrotation
                        End Site
                        {
                          OFFSET -0.4187 -1.5237 -0.3496
                        }
                      }
                    }
                  }
                  JOINT LeftFinger0
                  {
                    OFFSET -1.42 -1.8761 1.4223
                    CHANNELS 3 Zrotation Xrotation Yrotation
                    JOINT LeftFinger01
                    {
                      OFFSET -1.1471 -3.4929 2.6334
                      CHANNELS 3 Zrotation Xrotation Yrotation
                      JOINT LeftFinger02
                      {
                        OFFSET -0.823 -2.3 1.6571
                        CHANNELS 3 Zrotation Xrotation Yrotation
                        End Site
                        {
                          OFFSET -0.5822 -1.6914 1.1582
                        }
                      }
                    }
                  }
                }
              }
            }
          }
          JOINT RightCollar
          {
            OFFSET -2.2603 21.606 7.4023
            CHANNELS 3 Zrotation Xrotation Yrotation
            JOINT RightShoulder
            {
              OFFSET -13.5187 -1.1334 -5.0155
              CHANNELS 3 Zrotation Xrotation Yrotation
              JOINT RightElbow
              {
                OFFSET 0.0994 -28.0499 -0.2431
                CHANNELS 3 Zrotation Xrotation Yrotation
                JOINT RightWrist
                {
                  OFFSET -0.0679 -23.3996 -0.1402
                  CHANNELS 3 Zrotation Xrotation Yrotation
                  JOINT RightFinger1
                  {
                    OFFSET -0.7932 -9.0691 2.5189
                    CHANNELS 3 Zrotation Xrotation Yrotation
                    JOINT RightFinger11
                    {
                      OFFSET 0.8272 -3.3923 0.5977
                      CHANNELS 3 Zrotation Xrotation Yrotation
                      JOINT RightFinger12
                      {
                        OFFSET 0.565 -2.3158 0.4082
                        CHANNELS 3 Zrotation Xrotation Yrotation
                        End Site
                        {
                          OFFSET 0.4919 -1.6479 0.2673
                        }
                      }
                    }
                  }
                  JOINT RightFinger2
                  {
                    OFFSET -0.916 -9.2044 0.2193
                    CHANNELS 3 Zrotation Xrotation Yrotation
                    JOINT RightFinger21
                    {
                      OFFSET -0.0117 -4.1944 -0.0248
                      CHANNELS 3 Zrotation Xrotation Yrotation
                      JOINT RightFinger22
                      {
                        OFFSET -0.0071 -2.3249 -0.0142
                        CHANNELS 3 Zrotation Xrotation Yrotation
                        End Site
                        {
                          OFFSET 0.1475 -2.0882 0.0028
                        }
                      }
                    }
                  }
                  JOINT RightFinger3
                  {
                    OFFSET -0.6113 -8.7231 -2.0637
                    CHANNELS 3 Zrotation Xrotation Yrotation
                    JOINT RightFinger31
                    {
                      OFFSET 0.1927 -3.8059 -0.2383
                      CHANNELS 3 Zrotation Xrotation Yrotation
                      JOINT RightFinger32
                      {
                        OFFSET 0.1091 -2.1688 -0.1362
                        CHANNELS 3 Zrotation Xrotation Yrotation
                        End Site
                        {
                          OFFSET 0.2358 -1.9176 -0.0906
                        }
                      }
                    }
                  }
                  JOINT RightFinger4
                  {
                    OFFSET 0.6151 -8.0947 -3.564
                    CHANNELS 3 Zrotation Xrotation Yrotation
                    JOINT RightFinger41
                    {
                      OFFSET 0.4882 -2.341 -0.6462
                      CHANNELS 3 Zrotation Xrotation Yrotation
                      JOINT RightFinger42
                      {
                        OFFSET 0.3574 -1.7166 -0.4742
                        CHANNELS 3 Zrotation Xrotation Yrotation
                        End Site
                        {
                          OFFSET 0.4187 -1.5237 -0.3496
                        }
                      }
                    }
                  }
                  JOINT RightFinger0
                  {
                    OFFSET 1.4199 -1.8761 1.4221
                    CHANNELS 3 Zrotation Xrotation Yrotation
                    JOINT RightFinger01
                    {
                      OFFSET 1.1472 -3.4929 2.6336
                      CHANNELS 3 Zrotation Xrotation Yrotation
                      JOINT RightFinger02
                      {
                        OFFSET 0.8229 -2.3 1.6571
                        CHANNELS 3 Zrotation Xrotation Yrotation
                        End Site
                        {
                          OFFSET 0.5822 -1.6914 1.1582
                        }
                      }
                    }
                  }
                }
              }
            }
          }
        }
      }
    }
    JOINT RightHip
    {
      OFFSET -9.412 3.9771 -0.7758
      CHANNELS 3 Zrotation Xrotation Yrotation
      JOINT RightKnee
      {
        OFFSET -0.7531 -40.938 0
        CHANNELS 3 Zrotation Xrotation Yrotation
        JOINT RightAnkle
        {
          OFFSET 0 -40.1986 0
          CHANNELS 3 Zrotation Xrotation Yrotation
          JOINT RightToe
          {
            OFFSET 0 -4.4182 9.239
            CHANNELS 3 Zrotation Xrotation Yrotation
            End Site
            {
              OFFSET 0 0 6.1981
            }
          }
        }
      }
    }
    JOINT LeftHip
    {
      OFFSET 9.4119 3.9773 -0.7758
      CHANNELS 3 Zrotation Xrotation Yrotation
      JOINT LeftKnee
      {
        OFFSET 0.7532 -40.9383 0
        CHANNELS 3 Zrotation Xrotation Yrotation
        JOINT LeftAnkle
        {
          OFFSET 0 -40.1986 0
          CHANNELS 3 Zrotation Xrotation Yrotation
          JOINT LeftToe
          {
            OFFSET 0 -4.4182 9.239
            CHANNELS 3 Zrotation Xrotation Yrotation
            End Site
            {
              OFFSET 0 0 6.1981
            }
          }
        }
      }
    }
  }
}
MOTION
Frames:	5
Frame Time:	0.0333333
0.803753 -30.1361 1.48112 0 0 -0 -3.33875 6.55381 -4.32423 2.5528 3.31102 -2.24831 5.24674 6.51574 -4.6537 5.24675 6.51576 -4.65371 4.77826 -3.18597 -28.9337 10.5407 0.141067 -26.1818 9.62102 -1.86334 -6.24622 11.0388 51.9281 48.2229 -149.691 -55.4817 -103.9 -16.8376 -6.48105 -39.6841 -0.444809 12.0597 -16.6139 -0.13691 -1.8456 -0.722385 -1.38415 0.861858 -0.0638713 9.48629 -0.580264 -8.80786 -12.2697 7.74845 -0.38054 -13.0363 8.22991 -0.349239 7.79321 3.66072 0.909756 -9.45439 6.58982 -0.714233 -11.1015 7.74337 -0.72712 11.8384 17.2813 1.54497 -8.80449 6.06773 -1.00398 -13.8191 9.56555 -1.15685 -7.55193 6.1681 1.51438 4.61882 5.962 -1.49419 10.0017 12.3871 -3.74161 -16.4617 -0.0376801 11.1132 -41.8344 13.5313 -33.0197 137.181 -51.8099 94.2614 -13.3696 -21.0235 68.647 29.9033 15.0791 7.54882 17.7567 5.9063 -1.21033 23.8054 7.77456 -2.02796 15.4015 5.57047 7.06152 30.0687 9.86983 -1.92836 5.83195 1.98775 0.0376225 15.2756 13.4084 -2.16086 26.7646 10.2255 -0.905751 4.02142 1.5571 0.172364 15.9397 26.4314 -7.20306 25.9973 9.82881 -0.0286005 7.12869 2.69186 0.43948 9.11157 18.3035 -19.7854 -4.34907 9.26975 3.30178 -8.30246 16.4189 6.521 19.5734 -79.4931 17.9758 118.554 72.6149 -114.423 -9.25813 -16.916 -12.2979 0.837468 5.66698 -0.367382 -48.2264 -76.865 -60.7457 -166.189 75.0494 176.363 -8.80477 -6.37308 0.677342 0.00381566 -0.0344297 4.02433e-005 
0.865674 -30.1326 1.45287 0 0 -0 -2.94219 7.0612 -4.59018 2.49235 3.12441 -2.28389 5.11868 6.14378 -4.71211 5.11869 6.1438 -4.71213 5.09717 -2.6822 -28.71 10.5848 0.745494 -26.0801 9.60687 -1.86794 -6.24923 10.7665 52.9259 48.8209 -149.072 -55.3835 -103.23 -17.016 -7.03444 -39.5225 -0.444812 12.0597 -16.6139 -0.136898 -1.84559 -0.722393 -1.38413 0.861862 -0.0638838 9.48629 -0.58027 -8.80785 -12.2698 7.74844 -0.380541 -13.0363 8.22991 -0.349228 7.79322 3.66071 0.909747 -9.45439 6.58981 -0.714238 -11.1015 7.74339 -0.7271 11.8384 17.2813 1.545 -8.80449 6.06773 -1.00398 -13.8191 9.56557 -1.15687 -7.55192 6.16809 1.51439 4.61881 5.96199 -1.4942 10.0017 12.3871 -3.7416 -16.4617 -0.0376873 11.1132 -42.5585 13.3471 -32.8053 136.479 -51.1763 93.3497 -14.06 -21.1075 68.3035 29.9033 15.0791 7.54881 17.7566 5.9063 -1.21032 23.8054 7.77454 -2.02796 15.4015 5.57047 7.06155 30.0687 9.86983 -1.92839 5.83195 1.98773 0.0376399 15.2756 13.4084 -2.16085 26.7646 10.2255 -0.905742 4.02142 1.5571 0.172361 15.9397 26.4314 -7.20304 25.9973 9.82881 -0.0286022 7.12867 2.69187 0.439498 9.11162 18.3036 -19.7855 -4.34908 9.26972 3.30178 -8.30245 16.4189 6.52099 21.7463 -80.0023 20.0854 118.523 72.6074 -114.338 -8.86484 -17.0249 -12.2685 0.837471 5.66698 -0.367376 -49.2757 -77.3182 -61.8271 -166.224 75.0639 176.482 -8.44209 -6.35392 0.70764 0.00382204 -0.034434 3.77188e-005 
1.00759 -30.1167 1.42727 0 0 -0 -2.21987 7.71055 -5.17085 2.44857 2.94704 -2.27262 5.02206 5.79176 -4.6784 5.02207 5.79177 -4.67841 5.24172 -2.27365 -28.4899 10.5368 1.16004 -25.9289 9.56572 -1.88131 -6.258 10.0831 53.7874 49.5445 -148.043 -55.8148 -102.299 -17.6936 -8.06659 -39.3451 -0.444817 12.0597 -16.6139 -0.136906 -1.84557 -0.722382 -1.38415 0.861851 -0.0638804 9.48629 -0.58027 -8.80783 -12.2697 7.74845 -0.380534 -13.0363 8.22991 -0.349226 7.79322 3.66071 0.909763 -9.45438 6.58984 -0.714213 -11.1015 7.74336 -0.727117 11.8384 17.2813 1.545 -8.80449 6.06775 -1.00397 -13.8191 9.56557 -1.15685 -7.55194 6.16809 1.5144 4.61883 5.962 -1.4942 10.0017 12.3871 -3.7416 -16.4617 -0.0377293 11.1132 -43.5718 13.2337 -32.6329 136.648 -50.1173 93.0782 -15.0413 -20.874 68.2457 29.9032 15.0791 7.5488 17.7566 5.90631 -1.21032 23.8054 7.77454 -2.02795 15.4015 5.57047 7.06153 30.0687 9.86983 -1.92837 5.83194 1.98774 0.0376342 15.2756 13.4084 -2.16085 26.7646 10.2255 -0.905736 4.02142 1.55711 0.172364 15.9397 26.4314 -7.20304 25.9973 9.82879 -0.0285925 7.12869 2.69188 0.439488 9.11161 18.3036 -19.7855 -4.34908 9.26975 3.30178 -8.30246 16.4189 6.52101 26.6346 -80.6088 24.9561 118.641 72.6081 -114.503 -8.67028 -17.0623 -12.3011 0.837475 5.66698 -0.367381 -50.1085 -78.0978 -62.6094 -166.196 75.0697 176.468 -8.26358 -6.35559 0.705759 0.00380524 -0.0344258 3.10491e-005 
1.20957 -30.0893 1.40391 0 0 -0 -1.26254 8.44491 -5.98411 2.41726 2.78172 -2.22645 4.9495 5.46474 -4.57634 4.94951 5.46476 -4.57635 5.25752 -1.94876 -28.2719 10.4234 1.43092 -25.741 9.49962 -1.90269 -6.27234 9.14263 54.5111 50.3364 -146.653 -56.6314 -101.116 -18.7166 -9.43476 -39.1656 -0.444821 12.0597 -16.6139 -0.136971 -1.84559 -0.722417 -1.38414 0.861873 -0.0638753 9.48629 -0.580265 -8.80785 -12.2698 7.74845 -0.380494 -13.0363 8.22992 -0.349232 7.79322 3.66074 0.909769 -9.45438 6.58984 -0.714219 -11.1015 7.7434 -0.727115 11.8384 17.2813 1.54504 -8.80449 6.06776 -1.00399 -13.8191 9.56558 -1.15685 -7.55194 6.16808 1.51443 4.61884 5.962 -1.4942 10.0017 12.3871 -3.74159 -16.4616 -0.0375843 11.1132 -44.7839 13.1541 -32.4971 137.425 -48.7679 93.2416 -16.226 -20.4105 68.4134 29.9033 15.0791 7.5488 17.7567 5.90631 -1.21032 23.8054 7.77455 -2.02793 15.4016 5.57049 7.06154 30.0687 9.86984 -1.92834 5.83196 1.98774 0.0376305 15.2756 13.4084 -2.16082 26.7646 10.2255 -0.905734 4.02143 1.5571 0.17235 15.9397 26.4315 -7.20303 25.9973 9.82879 -0.0285976 7.12871 2.69187 0.439472 9.1116 18.3035 -19.7855 -4.34908 9.26975 3.30179 -8.30247 16.4189 6.52102 34.1559 -81.1413 32.4888 118.809 72.6245 -114.791 -8.63024 -17.041 -12.3782 0.837463 5.66699 -0.367373 -50.7416 -79.1102 -63.1423 -166.117 75.0712 176.348 -8.22369 -6.37307 0.678125 0.0038198 -0.0344483 5.22956e-005 
1.44715 -30.0528 1.38289 0 0 -0 -0.163597 9.20912 -6.94587 2.39428 2.63095 -2.15775 4.89363 5.16745 -4.43052 4.89364 5.16746 -4.43054 5.1887 -1.69604 -28.0553 10.2704 1.60444 -25.5303 9.41028 -1.93176 -6.29149 8.08254 55.1153 51.1501 -144.969 -57.6728 -99.708 -19.934 -10.999 -38.9958 -0.444831 12.0597 -16.6138 -0.136888 -1.8456 -0.722398 -1.38415 0.86186 -0.0638521 9.48629 -0.580275 -8.80782 -12.2697 7.74845 -0.380471 -13.0363 8.22992 -0.349211 7.79322 3.66071 0.909795 -9.45438 6.58985 -0.714211 -11.1015 7.74337 -0.72712 11.8383 17.2813 1.54513 -8.80447 6.06774 -1.00399 -13.8191 9.56554 -1.15688 -7.55196 6.16805 1.51449 4.61883 5.962 -1.49419 10.0017 12.3871 -3.74158 -16.4617 -0.0376618 11.1132 -46.084 13.126 -32.3974 138.601 -47.2107 93.6934 -17.5303 -19.8039 68.7403 29.9033 15.0791 7.54881 17.7566 5.90629 -1.2103 23.8054 7.77456 -2.0279 15.4016 5.57048 7.06154 30.0687 9.86986 -1.92831 5.83196 1.98775 0.0376185 15.2756 13.4085 -2.16079 26.7646 10.2255 -0.905744 4.02142 1.5571 0.172375 15.9397 26.4315 -7.20304 25.9974 9.8288 -0.0285816 7.1287 2.69186 0.439497 9.11168 18.3035 -19.7857 -4.34909 9.26974 3.3018 -8.30247 16.4189 6.52103 43.5839 -81.4413 41.9363 118.943 72.6618 -115.088 -8.69722 -16.9746 -12.4814 0.83746 5.66699 -0.367372 -51.0905 -80.2597 -63.3755 -165.992 75.0814 176.14 -8.27636 -6.40142 0.629694 0.00380333 -0.0344451 4.68007e-005 
